<?xml version="1.0" standalone="no"?>
<!DOCTYPE svg PUBLIC "-//W3C//DTD SVG 20010904//EN"
 "http://www.w3.org/TR/2001/REC-SVG-20010904/DTD/svg10.dtd">
<svg version="1.0" xmlns="http://www.w3.org/2000/svg"
 width="550.000000pt" height="550.000000pt" viewBox="0 0 550.000000 550.000000"
 preserveAspectRatio="xMidYMid meet">
<metadata>
Created by potrace 1.14, written by Peter Selinger 2001-2017
</metadata>
<g transform="translate(0.000000,550.000000) scale(0.100000,-0.100000)"
fill="#000000" stroke="none">
<path d="M2485 5300 c-679 -69 -1277 -344 -1731 -795 -236 -235 -376 -431
-518 -726 -106 -218 -173 -440 -213 -699 -24 -159 -25 -520 0 -675 42 -268
110 -482 232 -730 134 -274 267 -457 490 -680 428 -428 959 -689 1595 -786
215 -33 601 -33 820 0 513 77 966 269 1370 581 115 89 341 314 430 428 226
290 396 638 474 972 48 203 61 319 60 555 0 250 -15 379 -69 590 -237 928
-1004 1658 -1990 1893 -220 53 -384 73 -635 77 -124 2 -265 0 -315 -5z"/>
</g>
</svg>
